<svg width="143" height="34" viewBox="0 0 143 34" fill="none" xmlns="http://www.w3.org/2000/svg">
<path d="M46.8906 15.2031V17.1719H41V15.2031H46.8906ZM41.8047 10.625V22H39.2578V10.625H41.8047ZM48.6484 10.625V22H46.1094V10.625H48.6484ZM55.375 19.9609V13.5469H57.8281V22H55.5312L55.375 19.9609ZM55.6328 18.2344L56.3047 18.2188C56.3047 18.7865 56.237 19.3099 56.1016 19.7891C55.9714 20.2682 55.7734 20.6849 55.5078 21.0391C55.2474 21.3932 54.9219 21.6693 54.5312 21.8672C54.1458 22.0599 53.6953 22.1562 53.1797 22.1562C52.763 22.1562 52.3802 22.099 52.0312 21.9844C51.6875 21.8646 51.3906 21.6797 51.1406 21.4297C50.8906 21.1745 50.6979 20.849 50.5625 20.4531C50.4271 20.0521 50.3594 19.5729 50.3594 19.0156V13.5469H52.7969V19.0312C52.7969 19.25 52.8229 19.4375 52.875 19.5938C52.9323 19.7448 53.0078 19.8698 53.1016 19.9688C53.2005 20.0677 53.3203 20.1406 53.4609 20.1875C53.6068 20.2344 53.7656 20.2578 53.9375 20.2578C54.3698 20.2578 54.7083 20.1693 54.9531 19.9922C55.2031 19.8099 55.3776 19.5677 55.4766 19.2656C55.5807 18.9583 55.6328 18.6146 55.6328 18.2344ZM61.8594 15.3203V22H59.4219V13.5469H61.7109L61.8594 15.3203ZM61.5469 17.4766L60.9297 17.4922C60.9297 16.8984 61 16.3542 61.1406 15.8594C61.2865 15.3594 61.4974 14.9245 61.7734 14.5547C62.0495 14.1849 62.3906 13.8984 62.7969 13.6953C63.2083 13.4922 63.6823 13.3906 64.2188 13.3906C64.5938 13.3906 64.9349 13.4479 65.2422 13.5625C65.5495 13.6719 65.8125 13.8464 66.0312 14.0859C66.2552 14.3203 66.4271 14.6276 66.5469 15.0078C66.6667 15.3828 66.7266 15.8333 66.7266 16.3594V22H64.2891V16.6562C64.2891 16.2812 64.2422 15.9974 64.1484 15.8047C64.0599 15.6068 63.9297 15.4714 63.7578 15.3984C63.5859 15.3255 63.3802 15.2891 63.1406 15.2891C62.8802 15.2891 62.6484 15.3464 62.4453 15.4609C62.2474 15.5703 62.0807 15.724 61.9453 15.9219C61.8099 16.1198 61.7083 16.3516 61.6406 16.6172C61.5781 16.8828 61.5469 17.1693 61.5469 17.4766ZM66.4766 17.3516L65.7031 17.4141C65.7031 16.8411 65.7708 16.3099 65.9062 15.8203C66.0417 15.3307 66.2448 14.9062 66.5156 14.5469C66.7865 14.1823 67.1224 13.8984 67.5234 13.6953C67.9297 13.4922 68.401 13.3906 68.9375 13.3906C69.3333 13.3906 69.6927 13.4479 70.0156 13.5625C70.3438 13.6771 70.625 13.862 70.8594 14.1172C71.099 14.3724 71.2839 14.7083 71.4141 15.125C71.5443 15.5365 71.6094 16.0417 71.6094 16.6406V22H69.1562V16.6406C69.1562 16.2708 69.1094 15.9896 69.0156 15.7969C68.9271 15.6042 68.7969 15.4714 68.625 15.3984C68.4583 15.3255 68.2578 15.2891 68.0234 15.2891C67.763 15.2891 67.5365 15.3438 67.3438 15.4531C67.151 15.5573 66.9896 15.7031 66.8594 15.8906C66.7292 16.0729 66.6328 16.2891 66.5703 16.5391C66.5078 16.7891 66.4766 17.0599 66.4766 17.3516ZM77.7188 19.9844V16.3594C77.7188 16.1042 77.6797 15.8854 77.6016 15.7031C77.5234 15.5208 77.401 15.3776 77.2344 15.2734C77.0677 15.1693 76.8516 15.1172 76.5859 15.1172C76.362 15.1172 76.1667 15.1562 76 15.2344C75.8385 15.3125 75.7135 15.4245 75.625 15.5703C75.5417 15.7161 75.5 15.8958 75.5 16.1094H73.0625C73.0625 15.7292 73.1484 15.375 73.3203 15.0469C73.4922 14.7188 73.737 14.4297 74.0547 14.1797C74.3776 13.9297 74.763 13.737 75.2109 13.6016C75.6589 13.4609 76.1615 13.3906 76.7188 13.3906C77.3802 13.3906 77.9688 13.5026 78.4844 13.7266C79.0052 13.9453 79.4167 14.276 79.7188 14.7188C80.0208 15.1562 80.1719 15.7083 80.1719 16.375V19.9141C80.1719 20.4245 80.2005 20.8255 80.2578 21.1172C80.3203 21.4036 80.4089 21.6536 80.5234 21.8672V22H78.0625C77.9479 21.7552 77.862 21.4531 77.8047 21.0938C77.7474 20.7292 77.7188 20.3594 77.7188 19.9844ZM78.0234 16.8438L78.0391 18.1875H76.8281C76.5573 18.1875 76.3229 18.2214 76.125 18.2891C75.9323 18.3568 75.776 18.4505 75.6562 18.5703C75.5365 18.6849 75.4479 18.8203 75.3906 18.9766C75.3385 19.1276 75.3125 19.2943 75.3125 19.4766C75.3125 19.6484 75.3542 19.8047 75.4375 19.9453C75.5208 20.0807 75.6354 20.1875 75.7812 20.2656C75.9271 20.3438 76.0964 20.3828 76.2891 20.3828C76.6068 20.3828 76.8776 20.3203 77.1016 20.1953C77.3307 20.0703 77.5078 19.9193 77.6328 19.7422C77.7578 19.5599 77.8203 19.3906 77.8203 19.2344L78.4062 20.25C78.3125 20.4583 78.1979 20.6745 78.0625 20.8984C77.9271 21.1172 77.7552 21.3229 77.5469 21.5156C77.3385 21.7031 77.0859 21.8568 76.7891 21.9766C76.4974 22.0964 76.1458 22.1562 75.7344 22.1562C75.2031 22.1562 74.7214 22.0495 74.2891 21.8359C73.8568 21.6172 73.5104 21.3177 73.25 20.9375C72.9948 20.5573 72.8672 20.1198 72.8672 19.625C72.8672 19.1823 72.9479 18.7891 73.1094 18.4453C73.2708 18.1016 73.513 17.8099 73.8359 17.5703C74.1641 17.3307 74.5755 17.151 75.0703 17.0312C75.5651 16.9062 76.1432 16.8438 76.8047 16.8438H78.0234ZM84.1641 15.3516V22H81.7188V13.5469H84.0156L84.1641 15.3516ZM83.8438 17.4766L83.2344 17.4922C83.2344 16.8568 83.3125 16.2865 83.4688 15.7812C83.625 15.276 83.8464 14.8464 84.1328 14.4922C84.4245 14.1328 84.7708 13.8594 85.1719 13.6719C85.5781 13.4844 86.026 13.3906 86.5156 13.3906C86.9115 13.3906 87.2734 13.4479 87.6016 13.5625C87.9297 13.6771 88.2109 13.862 88.4453 14.1172C88.6849 14.3672 88.8672 14.7005 88.9922 15.1172C89.1172 15.5286 89.1797 16.0365 89.1797 16.6406V22H86.7266V16.6328C86.7266 16.2786 86.6771 16.0052 86.5781 15.8125C86.4792 15.6198 86.3333 15.4844 86.1406 15.4062C85.9531 15.3281 85.724 15.2891 85.4531 15.2891C85.1667 15.2891 84.9219 15.3464 84.7188 15.4609C84.5156 15.5703 84.349 15.724 84.2188 15.9219C84.0885 16.1198 83.9922 16.3516 83.9297 16.6172C83.8724 16.8828 83.8438 17.1693 83.8438 17.4766ZM93.3438 13.5469V22H90.8984V13.5469H93.3438ZM90.75 11.3594C90.75 11.0052 90.875 10.7161 91.125 10.4922C91.375 10.263 91.7031 10.1484 92.1094 10.1484C92.5156 10.1484 92.8438 10.263 93.0938 10.4922C93.349 10.7161 93.4766 11.0052 93.4766 11.3594C93.4766 11.7083 93.349 11.9974 93.0938 12.2266C92.8438 12.4505 92.5156 12.5625 92.1094 12.5625C91.7031 12.5625 91.375 12.4505 91.125 12.2266C90.875 11.9974 90.75 11.7083 90.75 11.3594ZM99.3984 13.5469V15.2578H94.3828V13.5469H99.3984ZM95.5312 11.4531H97.9766V19.3516C97.9766 19.5859 98.0052 19.7656 98.0625 19.8906C98.1198 20.0156 98.2135 20.1042 98.3438 20.1562C98.474 20.2031 98.6406 20.2266 98.8438 20.2266C98.9896 20.2266 99.1146 20.2214 99.2188 20.2109C99.3229 20.2005 99.4193 20.1875 99.5078 20.1719V21.9375C99.2995 22.0052 99.0781 22.0573 98.8438 22.0938C98.6094 22.1354 98.3542 22.1562 98.0781 22.1562C97.5521 22.1562 97.0964 22.0703 96.7109 21.8984C96.3307 21.7266 96.0391 21.4557 95.8359 21.0859C95.6328 20.7109 95.5312 20.224 95.5312 19.625V11.4531ZM103.117 21.0234L105.328 13.5469H107.953L104.555 23.2656C104.482 23.4792 104.383 23.7083 104.258 23.9531C104.138 24.1979 103.974 24.4323 103.766 24.6562C103.562 24.8802 103.302 25.0625 102.984 25.2031C102.667 25.3438 102.276 25.4141 101.812 25.4141C101.578 25.4141 101.396 25.401 101.266 25.375C101.141 25.3542 100.974 25.3177 100.766 25.2656L100.758 23.4922C100.826 23.4922 100.885 23.4922 100.938 23.4922C100.995 23.4974 101.052 23.5 101.109 23.5C101.401 23.5 101.635 23.4688 101.812 23.4062C101.995 23.3438 102.135 23.25 102.234 23.125C102.339 23.0052 102.422 22.8516 102.484 22.6641L103.117 21.0234ZM102.375 13.5469L104.125 19.5625L104.422 22.1484L102.773 22.2344L99.75 13.5469H102.375Z" fill="#0D0D0D"/>
<path d="M111.414 10.625V22H108.867V10.625H111.414ZM115.891 15.4219V17.3906H110.703V15.4219H115.891ZM116.391 10.625V12.6016H110.703V10.625H116.391ZM120.078 13.5469V22H117.633V13.5469H120.078ZM117.484 11.3594C117.484 11.0052 117.609 10.7161 117.859 10.4922C118.109 10.263 118.438 10.1484 118.844 10.1484C119.25 10.1484 119.578 10.263 119.828 10.4922C120.083 10.7161 120.211 11.0052 120.211 11.3594C120.211 11.7083 120.083 11.9974 119.828 12.2266C119.578 12.4505 119.25 12.5625 118.844 12.5625C118.438 12.5625 118.109 12.4505 117.859 12.2266C117.609 11.9974 117.484 11.7083 117.484 11.3594ZM124.281 15.5156V22H121.844V13.5469H124.133L124.281 15.5156ZM126.805 13.4844L126.766 15.7578C126.661 15.7422 126.526 15.7292 126.359 15.7188C126.193 15.7031 126.049 15.6953 125.93 15.6953C125.617 15.6953 125.346 15.7344 125.117 15.8125C124.893 15.8854 124.706 15.9948 124.555 16.1406C124.409 16.2865 124.299 16.4688 124.227 16.6875C124.154 16.901 124.117 17.1484 124.117 17.4297L123.656 17.2031C123.656 16.6458 123.711 16.1354 123.82 15.6719C123.93 15.2083 124.089 14.8073 124.297 14.4688C124.505 14.125 124.76 13.8594 125.062 13.6719C125.365 13.4844 125.708 13.3906 126.094 13.3906C126.219 13.3906 126.346 13.3984 126.477 13.4141C126.607 13.4297 126.716 13.4531 126.805 13.4844ZM132.305 19.6484C132.305 19.4922 132.255 19.3542 132.156 19.2344C132.062 19.1146 131.891 19.0052 131.641 18.9062C131.396 18.8073 131.049 18.7083 130.602 18.6094C130.18 18.5208 129.786 18.4062 129.422 18.2656C129.057 18.1198 128.74 17.9453 128.469 17.7422C128.198 17.5339 127.987 17.2891 127.836 17.0078C127.685 16.7214 127.609 16.3958 127.609 16.0312C127.609 15.6771 127.685 15.3411 127.836 15.0234C127.992 14.7057 128.216 14.4245 128.508 14.1797C128.805 13.9349 129.164 13.7422 129.586 13.6016C130.013 13.4609 130.497 13.3906 131.039 13.3906C131.784 13.3906 132.427 13.5078 132.969 13.7422C133.51 13.9714 133.927 14.2943 134.219 14.7109C134.51 15.1224 134.656 15.5938 134.656 16.125H132.219C132.219 15.9062 132.177 15.7161 132.094 15.5547C132.01 15.3932 131.883 15.2682 131.711 15.1797C131.539 15.0859 131.312 15.0391 131.031 15.0391C130.812 15.0391 130.62 15.0781 130.453 15.1562C130.292 15.2292 130.164 15.3307 130.07 15.4609C129.982 15.5911 129.938 15.7422 129.938 15.9141C129.938 16.0339 129.964 16.1432 130.016 16.2422C130.073 16.3359 130.159 16.4245 130.273 16.5078C130.393 16.5859 130.547 16.6562 130.734 16.7188C130.927 16.7812 131.161 16.8411 131.438 16.8984C132.026 17.0078 132.562 17.1615 133.047 17.3594C133.536 17.5573 133.927 17.8307 134.219 18.1797C134.516 18.5286 134.664 18.9896 134.664 19.5625C134.664 19.9375 134.578 20.2812 134.406 20.5938C134.24 20.9062 133.997 21.1797 133.68 21.4141C133.362 21.6484 132.982 21.8307 132.539 21.9609C132.096 22.0911 131.596 22.1562 131.039 22.1562C130.242 22.1562 129.568 22.013 129.016 21.7266C128.464 21.4401 128.047 21.0807 127.766 20.6484C127.49 20.2109 127.352 19.763 127.352 19.3047H129.641C129.651 19.5859 129.721 19.8151 129.852 19.9922C129.987 20.1693 130.161 20.2995 130.375 20.3828C130.589 20.4609 130.828 20.5 131.094 20.5C131.359 20.5 131.581 20.4635 131.758 20.3906C131.935 20.3177 132.07 20.2188 132.164 20.0938C132.258 19.9635 132.305 19.8151 132.305 19.6484ZM140.32 13.5469V15.2578H135.305V13.5469H140.32ZM136.453 11.4531H138.898V19.3516C138.898 19.5859 138.927 19.7656 138.984 19.8906C139.042 20.0156 139.135 20.1042 139.266 20.1562C139.396 20.2031 139.562 20.2266 139.766 20.2266C139.911 20.2266 140.036 20.2214 140.141 20.2109C140.245 20.2005 140.341 20.1875 140.43 20.1719V21.9375C140.221 22.0052 140 22.0573 139.766 22.0938C139.531 22.1354 139.276 22.1562 139 22.1562C138.474 22.1562 138.018 22.0703 137.633 21.8984C137.253 21.7266 136.961 21.4557 136.758 21.0859C136.555 20.7109 136.453 20.224 136.453 19.625V11.4531Z" fill="#B71717"/>
<g clip-path="url(#clip0_2_4)">
<path d="M16.6655 29.3102L16.2789 23.9216L13.9672 23.2221L13.9282 27.18L9.78263 23.9648L9.25532 20.017L6.98102 18.9033L7.0844 24.7414L11.1465 29.7179L12.043 31.3518L10.5106 31.3446L10.495 33.9647L18.5463 34.0007L18.561 31.3799L17.1424 31.3741L16.6655 29.3102ZM17.5907 33.1996L11.4567 33.1737L11.4619 32.1442L17.5967 32.1695L17.5907 33.1996Z" fill="#B71717"/>
<path d="M30.7396 23.9684L26.5332 27.1303L26.5689 23.1738L24.2424 23.8424L23.7551 29.2266L23.2408 31.2826L21.8213 31.2697L21.7874 33.8898L29.8396 33.9589L29.8717 31.3388L28.3393 31.3259L29.2654 29.7035L33.4204 24.7789L33.6324 18.9436L31.3355 20.0271L30.7396 23.9684ZM28.9075 32.1255L28.8936 33.1557L22.7587 33.1053L22.7726 32.0736L28.9075 32.1255Z" fill="#B71717"/>
<path d="M30.9385 18.0849C31.1618 17.8602 31.3746 17.6303 31.5762 17.3926C33.1138 15.5938 34.019 13.3994 34.019 11.0308C34.019 8.66425 33.112 6.46919 31.5762 4.66963C31.3746 4.4319 31.1609 4.20137 30.9385 3.97877C28.4948 1.54886 24.8219 0 20.7172 0C20.7102 0 20.7041 0 20.6981 0C20.6937 0 20.6902 0 20.6859 0C20.6703 0 20.6564 0.0014408 20.6399 0.0014408C16.5682 0.0208916 12.9248 1.56615 10.4985 3.97877C10.2743 4.20281 10.0624 4.43334 9.85995 4.67107C8.32232 6.46919 7.41537 8.66281 7.41537 11.0308C7.41537 13.3987 8.32318 15.5938 9.85995 17.3926C10.0624 17.6289 10.2752 17.8602 10.4985 18.0835C12.9257 20.4968 16.5682 22.0428 20.6399 22.0608C20.6564 22.0608 20.6703 22.0637 20.6859 22.0637C20.6902 22.0637 20.6937 22.0622 20.6981 22.0622C20.705 22.0622 20.7111 22.0637 20.7172 22.0637C24.8219 22.063 28.4948 20.5134 30.9385 18.0849ZM16.8288 1.4336C15.6056 2.41118 14.5901 3.84261 13.8899 5.55789C12.9517 5.26829 12.1073 4.91745 11.3793 4.52195C12.8075 3.11645 14.6848 2.03297 16.8288 1.4336ZM10.74 5.21425C11.5661 5.67171 12.5226 6.07225 13.5807 6.40147C13.1246 7.78464 12.8631 9.31837 12.8527 10.9378H8.50996C8.53341 8.80905 9.35783 6.83804 10.74 5.21425ZM8.54905 11.8441H12.8735C12.9439 13.1977 13.1915 14.4851 13.5798 15.6601C12.5226 15.9893 11.567 16.3905 10.74 16.8487C9.51507 15.4094 8.72801 13.697 8.54905 11.8441ZM11.3837 17.5389C12.1117 17.1448 12.9543 16.7954 13.8899 16.5036C14.5901 18.2204 15.6065 19.6496 16.8297 20.6287C14.6848 20.0293 12.8101 18.9444 11.3837 17.5389ZM20.1716 21.125C17.9329 20.87 15.9983 18.9652 14.9037 16.2227C16.4822 15.8286 18.2717 15.5909 20.1716 15.5527V21.125ZM20.1716 14.6479C18.1684 14.6875 16.2798 14.9447 14.5971 15.3726C14.2531 14.2877 14.0324 13.0976 13.9655 11.8441H20.1716V14.6479ZM20.1716 10.9378H13.9438C13.9525 9.41707 14.1922 7.98131 14.6023 6.69108C16.2832 7.11755 18.1701 7.37473 20.1716 7.41436V10.9378ZM20.1716 6.50953C18.2726 6.46991 16.4848 6.23218 14.9055 5.841C16.0018 3.09844 17.9321 1.19226 20.1716 0.9358V6.50953ZM30.6961 16.8487C29.8544 16.3819 28.8779 15.9749 27.7964 15.6413C28.1803 14.4707 28.4271 13.1905 28.4965 11.8441H32.8862C32.7081 13.697 31.9202 15.4108 30.6961 16.8487ZM32.9261 10.9378H28.5209C28.5104 9.32558 28.2507 7.79761 27.799 6.4202C28.8797 6.08666 29.8544 5.68035 30.6961 5.21425C32.0748 6.83804 32.9018 8.80905 32.9261 10.9378ZM30.0542 4.52195C29.3123 4.92609 28.4479 5.28197 27.4871 5.57445C26.7817 3.83541 25.7497 2.38885 24.5091 1.40694C26.6931 2.00055 28.6051 3.09484 30.0542 4.52195ZM21.2636 0.943724C23.4788 1.22828 25.3874 3.13014 26.4716 5.85397C24.907 6.23794 23.1409 6.47135 21.2636 6.50953V0.943724ZM21.2636 7.41436C23.2417 7.37473 25.1094 7.12331 26.7739 6.70548C27.1822 7.9914 27.4176 9.42355 27.4289 10.9378H21.2636V7.41436ZM21.2636 11.8441H27.4063C27.3403 13.0918 27.1214 14.2769 26.7782 15.3575C25.112 14.9382 23.2443 14.6875 21.2627 14.6486L21.2636 11.8441ZM21.2636 21.1178V15.5527C23.1409 15.5909 24.9087 15.8229 26.475 16.2083C25.3883 18.9328 23.4788 20.834 21.2636 21.1178ZM24.5091 20.6567C25.7497 19.6748 26.7826 18.2283 27.4888 16.4871C28.4479 16.7824 29.3114 17.1354 30.0524 17.5381C28.6017 18.966 26.6931 20.0617 24.5091 20.6567Z" fill="#B71717"/>
</g>
<defs>
<clipPath id="clip0_2_4">
<rect width="41" height="34" fill="white"/>
</clipPath>
</defs>
</svg>
